<?xml version="1.0" encoding="utf-8"?>
<!-- Generator: Adobe Illustrator 19.2.0, SVG Export Plug-In . SVG Version: 6.00 Build 0)  -->
<svg version="1.1" id="Laag_1" xmlns="http://www.w3.org/2000/svg" xmlns:xlink="http://www.w3.org/1999/xlink" x="0px" y="0px"
	 viewBox="0 0 841.9 595.3" style="enable-background:new 0 0 841.9 595.3;" xml:space="preserve">
<style type="text/css">
	.st0{fill:#FFE54F;}
	.st1{fill:#3C3C3B;}
	.st2{fill:#FFFFFF;}
	.st3{fill:none;stroke:#3C3C3B;stroke-width:4;stroke-miterlimit:10;}
</style>
<g>
	<g id="XMLID_2_">
		<g>
			<polygon class="st1" points="477.6,285.9 484.5,297.5 478.1,301.3 477.6,300.4 			"/>
			<path class="st0" d="M477.6,300.4v25.9c0,12.8-9,23.9-21.5,26.4l-3,0.6v21.9l-23-22h-61.8c-12.9,0-23.7-9.2-26.3-21.3l24.4-32.4
				c1-1.3,2.4-2,3.9-2c0.1,0,0.1,0,0.1,0c1.6,0,3,0.7,3.9,1.9l20.2,25.8c2.7,3.4,6.9,5.2,11.3,4.7c4.4-0.6,8-3.3,9.8-7.3l28.1-63.5
				c0.7-1.8,2.4-2.9,4.2-3c1.8-0.2,3.6,0.7,4.6,2.4L477.6,300.4z"/>
			<path class="st0" d="M381.1,248.2c0,4.7-3.9,8.6-8.6,8.6c-4.7,0-8.6-3.8-8.6-8.6c0-4.8,3.9-8.6,8.6-8.6
				C377.1,239.6,381.1,243.4,381.1,248.2z"/>
			<path class="st1" d="M394.5,325.2l-20.2-25.8c-1-1.3-2.4-1.9-3.9-1.9c0,0,0,0-0.1,0c-1.6,0-3,0.7-3.9,2l-24.4,32.4
				c-0.4-1.8-0.6-3.7-0.6-5.6v-6l19.1-25.3c2.4-3,5.9-4.9,9.8-4.9c3.7-0.1,7.5,1.7,9.8,4.7l20.2,25.8c1.1,1.4,2.7,2.1,4.6,1.8
				c1.8-0.2,3.2-1.3,3.9-2.9l28.1-63.5c1.9-4.2,6-7,10.6-7.3c4.7-0.2,9,2,11.4,6l18.7,31.3v14.4l-25-41.9c-1-1.6-2.7-2.6-4.6-2.4
				c-1.8,0.1-3.5,1.2-4.2,3l-28.1,63.5c-1.8,4-5.4,6.7-9.8,7.3C401.5,330.4,397.2,328.6,394.5,325.2z"/>
			<path class="st1" d="M372.4,260.5c-6.8,0-12.3-5.5-12.3-12.3c0-6.8,5.5-12.3,12.3-12.3c6.8,0,12.3,5.5,12.3,12.3
				C384.8,255,379.2,260.5,372.4,260.5z M372.4,256.8c4.7,0,8.6-3.8,8.6-8.6c0-4.8-3.9-8.6-8.6-8.6c-4.7,0-8.6,3.8-8.6,8.6
				C363.8,252.9,367.7,256.8,372.4,256.8z"/>
			<path class="st1" d="M356.4,248.2c0-8.9,7.2-16,16-16c8.9,0,16,7.2,16,16c0,8.8-7.2,16-16,16C363.6,264.2,356.4,257,356.4,248.2z
				 M360.1,248.2c0,6.8,5.5,12.3,12.3,12.3c6.8,0,12.3-5.5,12.3-12.3c0-6.8-5.5-12.3-12.3-12.3C365.6,235.9,360.1,241.4,360.1,248.2
				z"/>
			<path class="st1" d="M341.5,326.2c0,1.9,0.2,3.8,0.6,5.6l-0.9,1.1l-5.9-4.4l6.2-8.3V326.2z"/>
			<path class="st1" d="M427.2,360.5h-58.8c-18.1,0-33-14.1-34.2-31.9l1.1-0.1l5.9,4.4l0.9-1.1c2.6,12.1,13.4,21.3,26.3,21.3h61.8
				l23,22v-21.9l3-0.6c12.5-2.5,21.5-13.6,21.5-26.4v-25.9l0.6,1l6.4-3.8h0.4v28.7c0,15.2-10.1,28.6-24.5,32.9v17.1
				c0,2.8-1.6,5.3-4.2,6.4c-0.9,0.4-1.8,0.5-2.7,0.5c-1.8,0-3.5-0.7-4.8-1.9L427.2,360.5z"/>
			<path class="st1" d="M368.4,217c-14.9,0-26.9,12-26.9,26.9v76.3l-6.2,8.3l-1.1,0.1c-0.1-0.7-0.1-1.6-0.1-2.4v-82.3
				c0-18.9,15.4-34.3,34.3-34.3h82.3c18.9,0,34.3,15.4,34.3,34.3v53.6h-0.4l-6.9-11.6v-42c0-14.9-12-26.9-26.9-26.9H368.4z"/>
		</g>
	</g>
</g>
</svg>
